<?xml version="1.0" encoding="utf-8"?>
<!-- Generator: Adobe Illustrator 24.3.0, SVG Export Plug-In . SVG Version: 6.00 Build 0)  -->
<svg version="1.1" id="Layer_1" xmlns="http://www.w3.org/2000/svg" xmlns:xlink="http://www.w3.org/1999/xlink" x="0px" y="0px"
	 viewBox="0 0 512 512" style="enable-background:new 0 0 512 512;" xml:space="preserve">
<g>
	<path d="M256,13.2C122.3,13.2,13.2,122.3,13.2,256S122.3,498.8,256,498.8S498.8,389.7,498.8,256S389.7,13.2,256,13.2 M256,489
		C127.2,489,23,384.8,23,256S127.2,23,256,23s233,104.3,233,233S384.8,489,256,489"/>
	<path d="M225.9,161.5l66.5,7c7.7,0.7,19.6-3.5,25.2-12.6l0,0c-4.9,2.8-13.3,4.2-20.3,3.5l-65.1-7c-7.7-0.7-19.6,3.5-25.2,12.6
		C211.2,162.2,219.6,160.8,225.9,161.5"/>
	<path d="M214,179.7l66.5,7c7.7,0.7,19.6-3.5,25.2-12.6l0,0c-4.9,2.8-13.3,4.2-20.3,3.5l-65.1-7c-7.7-0.7-19.6,3.5-25.2,12.6
		C199.3,180.4,207,179,214,179.7"/>
	<path d="M303.6,218.2v68.6l0,0v0.7c0,7-2.1,13.3-5.6,19.6l15.4,26.6V224.5v-2.1c0.7-5.6,2.1-11.2,4.2-16.1l2.1-4.2
		C310.6,202.8,303.6,209.8,303.6,218.2"/>
	<path d="M305.7,344.9L305.7,344.9L256,249l0,0l-23.8-46.9H221l35,67.9l0,0l46.2,89.6h17.5C314.1,356.1,308.5,351.2,305.7,344.9"/>
	<path d="M256,291.7l-46.2-89.6h-17.5c5.6,3.5,10.5,8.4,14,14.7v0.7l49.7,95.9l0,0l23.8,46.9H291L256,291.7L256,291.7z"/>
	<path d="M208.4,343.5v-68.6l0,0v-0.7c0-7,2.1-13.3,5.6-19.6L198.6,228v109.2v2.1c-0.7,5.6-2.1,11.2-4.2,16.1l-2.1,4.2
		C201.4,359.6,208.4,352.6,208.4,343.5"/>
</g>
</svg>
